<mxfile host="65bd71144e">
    <diagram id="4gMX8WDlUXETbkLQC65E" name="Page-1">
        <mxGraphModel dx="1338" dy="2276" grid="1" gridSize="10" guides="1" tooltips="1" connect="1" arrows="1" fold="1" page="1" pageScale="1" pageWidth="850" pageHeight="1100" math="0" shadow="0">
            <root>
                <mxCell id="0"/>
                <mxCell id="1" parent="0"/>
                <mxCell id="39" value="" style="rounded=0;whiteSpace=wrap;html=1;strokeColor=none;" vertex="1" parent="1">
                    <mxGeometry y="-190" width="1500" height="910" as="geometry"/>
                </mxCell>
                <mxCell id="38" value="" style="rounded=1;arcSize=10;dashed=1;strokeColor=#F59D56;fillColor=default;gradientColor=none;dashPattern=8 4;strokeWidth=5;fontSize=15;" parent="1" vertex="1">
                    <mxGeometry x="230" y="-120" width="920" height="780" as="geometry"/>
                </mxCell>
                <mxCell id="6" style="edgeStyle=none;html=1;entryX=0;entryY=0.5;entryDx=0;entryDy=0;fontSize=15;" parent="1" source="2" target="5" edge="1">
                    <mxGeometry relative="1" as="geometry"/>
                </mxCell>
                <mxCell id="2" value="User (Trader/Investor)" style="rounded=0;whiteSpace=wrap;html=1;labelPosition=center;verticalLabelPosition=top;align=center;verticalAlign=bottom;fontSize=15;fontStyle=1" parent="1" vertex="1">
                    <mxGeometry x="40" y="150" width="120" height="230" as="geometry"/>
                </mxCell>
                <mxCell id="3" value="" style="outlineConnect=0;dashed=0;verticalLabelPosition=bottom;verticalAlign=top;align=center;html=1;shape=mxgraph.aws3.mobile_client;fillColor=#D2D3D3;gradientColor=none;fontSize=15;" parent="1" vertex="1">
                    <mxGeometry x="79.75" y="170" width="40.5" height="63" as="geometry"/>
                </mxCell>
                <mxCell id="4" value="" style="outlineConnect=0;dashed=0;verticalLabelPosition=bottom;verticalAlign=top;align=center;html=1;shape=mxgraph.aws3.management_console;fillColor=#F58534;gradientColor=none;fontSize=15;" parent="1" vertex="1">
                    <mxGeometry x="68.5" y="280" width="63" height="63" as="geometry"/>
                </mxCell>
                <mxCell id="11" style="edgeStyle=none;html=1;entryX=0;entryY=0.5;entryDx=0;entryDy=0;fontSize=15;" parent="1" source="5" target="9" edge="1">
                    <mxGeometry relative="1" as="geometry"/>
                </mxCell>
                <mxCell id="5" value="API Gateway" style="rounded=0;whiteSpace=wrap;html=1;labelPosition=center;verticalLabelPosition=top;align=center;verticalAlign=bottom;fontSize=15;fontStyle=1" parent="1" vertex="1">
                    <mxGeometry x="220" y="192.5" width="120" height="150" as="geometry"/>
                </mxCell>
                <mxCell id="8" value="" style="outlineConnect=0;dashed=0;verticalLabelPosition=bottom;verticalAlign=top;align=center;html=1;shape=mxgraph.aws3.api_gateway;fillColor=#D9A741;gradientColor=none;fontSize=15;" parent="1" vertex="1">
                    <mxGeometry x="242" y="218" width="76.5" height="93" as="geometry"/>
                </mxCell>
                <mxCell id="13" style="edgeStyle=none;html=1;entryX=0;entryY=0.5;entryDx=0;entryDy=0;fontSize=15;" parent="1" source="9" target="12" edge="1">
                    <mxGeometry relative="1" as="geometry"/>
                </mxCell>
                <mxCell id="9" value="Order Processing &amp;amp; Matching Engine" style="rounded=0;whiteSpace=wrap;html=1;labelPosition=center;verticalLabelPosition=top;align=center;verticalAlign=bottom;fontSize=15;fontStyle=1" parent="1" vertex="1">
                    <mxGeometry x="400" y="195" width="120" height="150" as="geometry"/>
                </mxCell>
                <mxCell id="10" value="AWS Fargate" style="sketch=0;points=[[0,0,0],[0.25,0,0],[0.5,0,0],[0.75,0,0],[1,0,0],[0,1,0],[0.25,1,0],[0.5,1,0],[0.75,1,0],[1,1,0],[0,0.25,0],[0,0.5,0],[0,0.75,0],[1,0.25,0],[1,0.5,0],[1,0.75,0]];outlineConnect=0;fontColor=#232F3E;fillColor=#ED7100;strokeColor=#ffffff;dashed=0;verticalLabelPosition=bottom;verticalAlign=top;align=center;html=1;fontSize=15;fontStyle=0;aspect=fixed;shape=mxgraph.aws4.resourceIcon;resIcon=mxgraph.aws4.fargate;" parent="1" vertex="1">
                    <mxGeometry x="421" y="228" width="78" height="78" as="geometry"/>
                </mxCell>
                <mxCell id="18" style="edgeStyle=none;html=1;entryX=0;entryY=0.5;entryDx=0;entryDy=0;fontSize=15;" parent="1" source="12" target="17" edge="1">
                    <mxGeometry relative="1" as="geometry"/>
                </mxCell>
                <mxCell id="12" value="&lt;p class=&quot;p1&quot;&gt;&lt;/p&gt;Risk Management Engine&amp;nbsp;" style="rounded=0;whiteSpace=wrap;html=1;labelPosition=center;verticalLabelPosition=top;align=center;verticalAlign=bottom;fontSize=15;fontStyle=1" parent="1" vertex="1">
                    <mxGeometry x="580" y="110.5" width="120" height="320" as="geometry"/>
                </mxCell>
                <mxCell id="14" value="Step Functions" style="outlineConnect=0;dashed=0;verticalLabelPosition=bottom;verticalAlign=top;align=center;html=1;shape=mxgraph.aws3.step_functions;fillColor=#D9A741;gradientColor=none;fontSize=15;" parent="1" vertex="1">
                    <mxGeometry x="601.75" y="294.5" width="76.5" height="93" as="geometry"/>
                </mxCell>
                <mxCell id="16" value="AWS Lambda" style="outlineConnect=0;dashed=0;verticalLabelPosition=bottom;verticalAlign=top;align=center;html=1;shape=mxgraph.aws3.lambda_function;fillColor=#F58534;gradientColor=none;fontSize=15;" parent="1" vertex="1">
                    <mxGeometry x="605.5" y="146.5" width="69" height="72" as="geometry"/>
                </mxCell>
                <mxCell id="24" style="edgeStyle=orthogonalEdgeStyle;html=1;entryX=0;entryY=0.5;entryDx=0;entryDy=0;fontSize=15;" parent="1" source="17" target="21" edge="1">
                    <mxGeometry relative="1" as="geometry"/>
                </mxCell>
                <mxCell id="29" style="edgeStyle=orthogonalEdgeStyle;html=1;entryX=0;entryY=0.5;entryDx=0;entryDy=0;fontSize=15;" parent="1" source="17" target="25" edge="1">
                    <mxGeometry relative="1" as="geometry"/>
                </mxCell>
                <mxCell id="31" style="edgeStyle=orthogonalEdgeStyle;html=1;entryX=0;entryY=0.5;entryDx=0;entryDy=0;exitX=1;exitY=0.5;exitDx=0;exitDy=0;fontSize=15;" parent="1" source="17" target="30" edge="1">
                    <mxGeometry relative="1" as="geometry"/>
                </mxCell>
                <mxCell id="17" value="&lt;p class=&quot;p1&quot;&gt;&lt;/p&gt;Trade Settlement &amp;amp; Order Book" style="rounded=0;whiteSpace=wrap;html=1;labelPosition=center;verticalLabelPosition=top;align=center;verticalAlign=bottom;fontSize=15;fontStyle=1" parent="1" vertex="1">
                    <mxGeometry x="750" y="110" width="120" height="320" as="geometry"/>
                </mxCell>
                <mxCell id="19" value="DynamoDB" style="outlineConnect=0;dashed=0;verticalLabelPosition=bottom;verticalAlign=top;align=center;html=1;shape=mxgraph.aws3.dynamo_db;fillColor=#2E73B8;gradientColor=none;fontSize=15;" parent="1" vertex="1">
                    <mxGeometry x="774" y="142.5" width="72" height="81" as="geometry"/>
                </mxCell>
                <mxCell id="20" value="ElastiCache&lt;div&gt;Redis&lt;/div&gt;" style="outlineConnect=0;dashed=0;verticalLabelPosition=bottom;verticalAlign=top;align=center;html=1;shape=mxgraph.aws3.elasticache;fillColor=#2E73B8;gradientColor=none;fontSize=15;" parent="1" vertex="1">
                    <mxGeometry x="778.12" y="294.5" width="63.75" height="81" as="geometry"/>
                </mxCell>
                <mxCell id="21" value="&lt;span style=&quot;color: rgb(63, 63, 63);&quot;&gt;WebSockets Market Data Feed&lt;/span&gt;" style="rounded=0;whiteSpace=wrap;html=1;labelPosition=center;verticalLabelPosition=top;align=center;verticalAlign=bottom;fontSize=15;fontStyle=1" parent="1" vertex="1">
                    <mxGeometry x="970" y="-40.5" width="120" height="263.5" as="geometry"/>
                </mxCell>
                <mxCell id="22" value="API Gateway" style="outlineConnect=0;dashed=0;verticalLabelPosition=bottom;verticalAlign=top;align=center;html=1;shape=mxgraph.aws3.api_gateway;fillColor=#D9A741;gradientColor=none;fontSize=15;" parent="1" vertex="1">
                    <mxGeometry x="991.75" y="-20" width="76.5" height="93" as="geometry"/>
                </mxCell>
                <mxCell id="23" value="Redis Stream" style="outlineConnect=0;dashed=0;verticalLabelPosition=bottom;verticalAlign=top;align=center;html=1;shape=mxgraph.aws3.elasticache;fillColor=#2E73B8;gradientColor=none;fontSize=15;" parent="1" vertex="1">
                    <mxGeometry x="998.1300000000001" y="100" width="63.75" height="81" as="geometry"/>
                </mxCell>
                <mxCell id="25" value="User Wallets &amp;amp; Balances" style="rounded=0;whiteSpace=wrap;html=1;labelPosition=center;verticalLabelPosition=top;align=center;verticalAlign=bottom;fontSize=15;fontStyle=1" parent="1" vertex="1">
                    <mxGeometry x="970" y="342.5" width="120" height="265" as="geometry"/>
                </mxCell>
                <mxCell id="26" value="AWS S3" style="outlineConnect=0;dashed=0;verticalLabelPosition=bottom;verticalAlign=top;align=center;html=1;shape=mxgraph.aws3.s3;fillColor=#E05243;gradientColor=none;fontSize=15;" parent="1" vertex="1">
                    <mxGeometry x="991.75" y="358" width="76.5" height="93" as="geometry"/>
                </mxCell>
                <mxCell id="27" value="AWS KMS" style="outlineConnect=0;dashed=0;verticalLabelPosition=bottom;verticalAlign=top;align=center;html=1;shape=mxgraph.aws3.kms;fillColor=#759C3E;gradientColor=none;fontSize=15;" parent="1" vertex="1">
                    <mxGeometry x="991.75" y="480" width="76.5" height="93" as="geometry"/>
                </mxCell>
                <mxCell id="30" value="External Crypto Exchange" style="rounded=0;whiteSpace=wrap;html=1;labelPosition=center;verticalLabelPosition=top;align=center;verticalAlign=bottom;fontSize=15;fontStyle=1" parent="1" vertex="1">
                    <mxGeometry x="1202" y="205.5" width="260" height="130" as="geometry"/>
                </mxCell>
                <mxCell id="32" value="Binance" style="shape=image;imageAspect=0;aspect=fixed;verticalLabelPosition=bottom;verticalAlign=top;image=data:image/png,iVBORw0KGgoAAAANSUhEUgAAAwAAAAMACAMAAACkX/C8AAAABGdBTUEAALGPC/xhBQAAACBjSFJNAAB6JgAAgIQAAPoAAACA6AAAdTAAAOpgAAA6mAAAF3CculE8AAABI1BMVEUAAADouS7yui7zuzDzui/0ui/qvyvzuy/zui/zui/zuy/yujDzui//xjnyuS7zui/zui/zuTD/qlXzuS7zui/zuS7yuS/zuy/zuS7zui/yui/ttjfyuTDzui/zuS7yvDHzujDzuy/zui/zuS3/v0Dyui//vyDzui7zui/0vCzzui/zui/yuTDzui/yui70ui7yujD/tiT/szPzuy/yuS/zuC/zujDzui//zDPzui/zuy//qivzuS7zujD0ui/0vDHzui/0uy/zujD0ui/zuS7zui/xuzDzui/zui/yuS/zui/yuS7zuS7zui/yui7uuzP0ui/0ui/vvzDyuzDyui/yui7wtC3zujDztjHzuTDzui/rsSfzui/zui/yuy/zui/////RRZ88AAAAX3RSTlMAC7VAv/QMwtP+8ju6CWP9uWYDpfVCYqQWzlEOi/pYOcFW+z4EdwjA1BfVxVC4ZEO2Bwq+t0GmpwWurwawsbJE9rOFtLv4S7y9TPlNxsdOD8jJEE/KyxHMFdHSDcTzPGuijicAAAABYktHRGDFt3wQAAAAB3RJTUUH6AcVCQ0BLlw9pgAAFgxJREFUeNrt3YmaI/dVxuE2juN1vMUGJ8FgSOIEMIuTsIUl7Pu+g0Pq/u+CeYwxY3tmuluqqv8553u/K6in9P4ktVqqurmxVXvmJ551EizX/5e25xRgwf43BVi0fwVYtn8FWLZ/BVi2fwVYtn8FWLZ/BVi2fwVYtn8FWLZ/BVi2fwVYtn8FWLZ/BVi2fwVYtn8FWLZ/BVi2fwVYtn8FWLZ/BVi2fwVYtn8FWLZ/BVi2fwVYtn8FWLZ/BVi2fwVYtn8FWLZ/BVi2fwVYtn8FWLZ/BVi2fwVYtn8FWLZ/BVi2fwVYtn8FWLZ/BVi2fwVYtn8FWLZ/BVi2fwVYtn8FWLZ/BVi2fwVYtn8FWLZ/BVi2fwVYtn8FWLZ/BVi2fwVYtn8FWLZ/BVi2fwVYtn8FWLZ/BVi2fwVYtn8FWLZ/BVi2fwVYtn8FWLZ/BVi2fwVYtn8FWLZ/BVi2fwVYtn8FWLZ/BVi2fwVYtn8FWLZ/BVi2fwVYtn8FWLZ/BVi2fwVYtn8FWLZ/BVi2fwVYtn8FWLZ/BVi2fwVYtn8FWLZ/BVi2fwVYtn8FWLZ/BVi2fwVYtn8FWLZ/BVi2fwVYtn8FWLZ/BVi2fwVYtn8FWLZ/BVi2fwVYtn8FWLZ/BVi2fwVYtn8FWLZ/BVi2fwVYtn8FWLZ/BVi2fwVYtn8FWLZ/BVi2fwVYtn8FWLZ/BVi2fwVYtn8FWLZ/BVi2fwVYtn8FWLZ/BVi2fwVYtn8FWLZ/BVi2fwVYtn8FWLZ/BVi2fwVYtn8FWLZ/BVi2fwVYtn8F8J/tXwH8bwow/hVg/CvA+FeA8a8A418Bxr8CjH8FGP8KMP4VYPwrwPhXgPGvAONfAca/Aox/BRj/CjD+FWD8K8D4V4DxrwDjXwHGvwKMfwUY/wow/hVg/CvA+FeA8a8A418Bxr8CjH8FGP8KMP4VYPwrwPhXgPGvAONfAca/Aox/BRj/CjD+FWD8K4B/U0Dqvvx8J1QvvNjoYF96GS/P/7vulQevvuY1wHL939wowJL9K8Cy/SvAsv0rwLL9K8Cy/SvAsv0rwLL9K8Cy/SvAsv0rwLL9K8Cy/SvAsv0rwLL9K8Cy/SvAsv0rwLL9K8Cy/SvAsv0rwLL9K8Cy/SvAsv0rwLL9K8Cy/SvAsv0rwLL9K8Cy/SvAsv0rwLL9K8Cy/SvAsv0rwLL9K8Cy/SvAsv0rwLL9K8Cy/SvAsv0rwLL9K8Cy/SvAsv0rgP9s/wrgP9u/AvjP9q8A/rP9K4D/bP8K4D/bvwL4z/avAP6z/SuA/2z/CuA/278C+M/2rwD+s/0rgP9s/wrgP9u/AvjP9q8A/rP9K4D/bP8K4D/bvwL4z/avAP6z/StgrP/nO/l//cG6M/XGi41O1Esvo323vfkVz/8DXwPeehvteQWs9d+pAP4nFrDaf58C+J9YwHr/XQrgf2IBFfz3KID/iQXU8N+hAP4nFlDFf/0C+J9YQB3/1Qvgf2IBlfzXLoD/iQXU8l+5AP4nFlDNf90C+J9YQD3/VQvgf2IBrz+oeKoqFsD/xAJq+r+5+cnX+FdArv96BfA/sYC6/qsVwP/EAir7r1UA/xMLqO2/UgH8Tyyguv86BfA/sYD6/qsUwP/EAjr4r1EA/xML6OG/QgH8Tyygi//1BfA/sYA+/lcXwP/EAjr5X1sA/xML6OV/ZQH8Tyygm/91BfA/sYB+/lcVwP/EAjr6X1MA/xML6Ol/RQH8Tyygq//zC+B/YgF9/Z9dAP8TC+js/9wC+J9YQG//ZxbA/8QCuvs/rwD+JxbQ3/9ZBfA/sYAJ/s8pgP+JBczwf0YB/E8sYIr/4wvgf2IBc/wfXQD/EwuY5P/YAvifWMAs/0cWwP/EAqb5P64A/tcW8FP8Ly2A/4kFTPR/TAH8Tyxgpv8jCuB/YgFT/e9fAP8TC5jrf+8C+J9YwGT/+xbA/8QCZvvfswD+JxYw3f9+BfA/sYD5/vcqgP+JBST436cA/icWkOF/jwL4n1hAiv/rC+B/YgE5/q8tgP+JBST5v64A/icWkOX/mgL4n1hAmv/LC+B/YgHr/L/ZrAD+Jxawzv87X/1aqwL4v9u+/tMPGhWw0P8L27udCljo/2d+tpH/Z97b3numTQFL/W+dCljo/+d+/rlvdPK/9Slgsf9GBSz1v21tCvjYf5sClvtvU8Bi/20K+MR/kwIK+G9SwHL/TQr41H+LAkr4b1FAAf8tCnjEf4MCivhvUEAJ/w0K+Iz/8gWU8V++gCL+yxfwOf/FCyjkv3gBZfwXL+AL/ksXUMp/6QIK+S9dwGP8Fy6gmP/CBZTyX7iAx/ovW0A5/2ULKOa/bAFP8F+0gIL+ixZQzn/RAp7ov2QBJf2XLKCg/5IFPMV/wQKK+i9YQEn/BQt4qv9yBZT1X66Aov7LFXCL/2IFFPZfrICy/osVcKv/UgWU9l+qgML+SxVwB/+FCijuv1ABpf0XKuBO/ssUUN5/mQKK+y9TwB39Fymggf8iBZT3X6SAO/svUUAL/yUKaOC/RAH38F+ggCb+CxTQwn+BAu7lf3kBbfwvL6CJ/+UF3NP/4gIa+V9cQBv/iwu4t/+VBXzzW+838r+0gFefbeN/aQEX+F9ZwE0r/0sLaOR/YQEX+Q8s4EL/iQVc4n9ZARf6jyvgYv95BVzmf1EBF/sPK+AK/2kFXOp/SQFX+I8q4Cr/WQVc7n9BAVf5DyrgSv9JBVzj//QCrvQfU8DV/nMKuM7/yQVc7T+kgB38pxRwrf9TC9jBf0QBu/jPKOB6/ycWsIv/gAJ28p9QwB7+TytgJ//jC9jN//wC9vF/UgG7+R9ewI7+pxewl/9TCtjR/+gCdvU/u4D9/J9QwK7+Bxews//JBezp//ACdvY/toDd/c8tYF//Bxewu/+hBRzgf2oBe/s/tIAD/I8s4BD/MwvY3/+BBRzif2ABB/mfWMAR/g8r4JlvH/S4DivgMP/zCjjG/0EFHOZ/WAEH+p9WwFH+DyngQP+jCjjU/6wCjvN/QAGH+h9UwMH+JxVwpP/dCzjY/5gCDvc/p4Bj/e9cwOH+hxRwgv8pBRztf9cCTvA/ooBT/M8o4Hj/OxZwiv8BBZzkf0IBZ/jfrYCT/Lcv4DT//Qs4x/9OBZzmv3kBJ/rvXsBZ/ncp4ET/rQs41X/vAs7zv0MBp/pvXMDJ/jsXcKb/qws42X/bAk7337eAc/1fWcDp/psWsMB/1wLO9n9VAQv8tyxgif+eBZzv/4oClvhvWMAi/x0LWOH/4gIW+W9XwDL//QpY4//CApb5b1bAQv/dCljl/6ICFvpvVcBS/70KWOf/ggKW+m9UwGL/nQpY6f/eBSz236aAd76zbQpo4P+eBSz336SAAv67FLDa/70KKOC/RQEl/PcoYL3/exRQwn+DAor471BABf93LqCI//IFLP/7t08BNfzfsYAy/osXUMh/9QKq+L9TAYX8ly6glP/aBdTxf4cCSvkvXMAv/OK2KaCd/1sLKOa/bAHFnv8rF1DL/y0FlPNftICC/qsWUM3/Uwso6L9kASX91yygnv+nFFDSf8ECivqvWEBF/08soKj/cgWU9V+vgJr+n1BAWf/FCijsv1oBVf0/toDC/ksVUNp/rQLq+n9MAaX9FyqguP9KBVT2/4UCivsvU0B5/3UKqO3/cwWU91+kgAb+qxRQ3f9nCmjgv0QBLfzXKKC+/0cL+KUWj+srD/jvUkAH/48U0ORxXfwa0Mb/+gJ6+P//AjYFjPK/uoAu/j8tYFPArSv3/edbCviA/7sX0OZwf/l9AdR/CfiV1/qcp7d+tVMAC/17CzSygP/1f8O/P4IjC/jE/83zLY721z70MWiXj0F7FPB//m+++z3P//4RFlfAp/5bFFDAv69CjCrgEf8NCijh35fhBhXwGf/lCyji39ehxxTwOf/FCyjj3w9ihhTwBf+lCyjk308iRxTwGP+FCyjl34/iBxTwWP9lCyjm32VR2hfwBP9FCyjn34WxmhfwRP8lCyjo36URWxfwFP8FCyjp38VxGxfwVP/lCijqv2ABdS+PXquAW/wXK6CsfzfIaFrArf5LFVDYv1sktSzgDv4LFVDav5vkNSzgTv7LFFDcf6EC6t8mtUYBd/RfpIDy/ssU0OFG2RUKuLP/EgU08F+kgA7+KxRwD/8FCmjhv0QBPfyvL+Be/pcX0MR/gQK6+F9dwD39Ly6gjf/lBfTxv7aAe/tfWkAj/4sL6OR/ZQEX+F9YQCv/Swvo5X9dARf5X1ZAM/8LC+jmf1UBF/pfVEA7/8sK6Od/TQEX+19SQEP/iwro6H9FAVf4X1BAS/9LCujp//wCrvJ/egFN/S8ooKv/swu40v/JBbT1f3oBff2fW8DV/k8toLH/kwvo7P/MAnbwf2IBrf2fWkBv/+cVsIv/0wpo7v/EArr7P6uAnfyfVEB7/6cV0N//OQXs5v+UAgb4P6mACf7PKGBH/ycUMML/KQXM8H98Abv6P7yAIf5PKGCK/6ML2Nn/wQWM8X94AXP8H1vA7v4PLWCQ/4MLmOT/yAIO8H9gAaP8H1rALP/HFXCI/8MK+P4s/wcWMM3/UQUc5P+gAsb5P6yAef6PKeAw/4cUMND/QQW8+8HAM3VAAQf6P6CAkf4PKWCm//0LONT/7gUM9X9AAVP9713Awf53LmCs/90LmOt/3wIO979rAYP971zAZP97FnCC/x0LGO1/1wJm+9+vgFP871bAcP87FjDd/14FnOR/pwLG+9+tgPn+9yngNP+7FBDgf6cCEvzvUcCJ/ncoIML/LgVk+L++gFP9X11AiP8dCkjxf20BJ/u/soAY/1cXkOP/ugJO939VAUH+rywgyf81BSzwf0UBUf6vKiDL/+UFLPF/cQFh/q8oIM3/pQUs8n9hAXH+Ly4gz/9lBSzzf1EB6/x/81vvtypgof9Xv9GogIX+Lyhgnf83v7K98qBRASv9v/bWr7cpYKn/exew1P/WqYCl/h+y6lLAYv/3LGCh/9/4+ADaFLDYf5sClvu/VwHL/bcpYLn/JgUU8H+PAgr4b1JAAf8Pcb1dvoAS/u9cwEL/v/nIYTQooIT/BgUU8X/HAtb5/63f/syBlC+giP/yBZTxf6cCyvgvX0AZ/8ULKOT/DgUU8l+8gEL+SxdQyv+tBSz0/4PHHE7hAkr5L1xAMf+3FFDMf+ECivkvW0A5/08tYJ3/3/nBEw6paAHl/BctoKD/pxRQ0H/RAgr6L1lASf9PLGCh/999ypNtwQJK+i9YQFH/TyigqP+CBRT1vxTc4woo6/+xBZT1X66Asv6LFVDY/2MKWOj/9279yL1UAYX9lyqgtP8vFFDaf6kCSvsvVEBx/58roLj/QgUU91+mgPL+P1NAef9lCijvv0gBDfw/UsBC/79/56/elyiggf+H+H64vIAW/j8toIX/EgW08L9tf7C6gCb+Pymgif8CBTTxv7yANv4/LmCh/z+85wUYFhfQxv/iAhr5v7n58h992Mb/4gIa+V9awBtv39gd9uH9/S8t4Kud/C8twA7zv7KAN1v5V0B1/3984YWY1xXQy78CZvrPK+BS/woovAevXHEzlqwCLvevgLr+/2TbFHC4/2370z+DbZ7/pAKu86+Amf5zCrjWvwIK7rvX+08p4Hr/Cqjn/8+3TQGn+VfATP8JBezjXwEz/c8vYC//Cqjk/y+2TQEn+39YwF+iN8//7AL29K+Amf4nF7CvfwXM9D+3gL39K6CC/+9tmwIW+d+2v1LAQP8zCzjCvwJm+p9YwDH+FbB0zxzlf14BR/l/WMBfg7jK/5e2TQGL/Stgpv9ZBRzpXwEz/U8q4Fj/Cpjpf04BR/tXwAr/3942BRTxr4CZ/mcUcIZ/Bcz0P6GAc/wr4Fz/722bAkr5V8CJ+/rfbJsCivlXwHn+/3bbFFDO/8MC/g7OE/b35/rvXMC5/hUw03/fAs72r4CZ/rsWcL5/BRzv/x+2TQFl/Stgpv+OBazxr4CZ/vsVsMq/Amb671bAOv8KOM7/P26bAsr7V8BM/50KWOtfAYfsn1b771PAav8PC/hnYOf571LAev8K2N//v2ybAtr4V8BM/x0KqOFfATP91y+gin8FzPRfvYA6/hWwn/9/3TYFtPP/sIAP4J3nv3IBtfwrYJf9WzX/dQuo5l8BM/1XLaCefwXM9F+zgIr+FXCt/3/fNgU09r9t7ypgoP96BVT1r4Ar9h//uW0KaO5fATP91yqgsn8FXOr/v7ZNAQP8K2Cm/zoFVPf/sICvAT3Pf5UC6vtXwEz/NQro4F8B99w7PfxXKKCHfwXcz/8L26aAUf4VcB//39n67PWlBbzxYp8z5bOgu+6jH20KGOd/++8fo33HnXAL1BHvgvq8/3m4554FWwH8mwL4NwXwbwrg3xTAvymAf1MA/6YA/k0B/JsC+DcF8K8ABfCvAAXwr4D4AvhXQHIB/CsguQD+FZBcAP8KSC6AfwUkF8C/ApIL4F8ByQXwb8kF8G/JBfBvyQXwb8kF8G/JBfBvyQXwb8kF8G/JBfBvyQXwb8kF8G/JBfBvyQXwb8kF8G/JBfBvyQXwb8kF8G/JBfBvyQXwb8kF8G/JBfBvyQXwb8kF8G/JBfBvyQXwb8kF8G/JBfBvyQXwb8kF8G/JBfBvyQXwb8kF8G/JBfBvyQXwb8kF8G/JBfBvyQXwb8kF8G/JBfBvyQXwb/vuox91KuCFFxsd7Es/xstrQO48/yuAf1MA/6YA/k0B/JsC+DcF8G8K4N8UwL8pgH9TAP+mAP5NAfybAvg3BfBvCuDfFMC/KYB/UwD/pgD+TQH8mwL4NwXwbwrg3xTAvymAf1MA/6YA/k0B/JsC+DcF8G8K4N8UwL8pgH9TAP+mAP5NAfybAvg3BfBvCuDfFMC/KYB/UwD/ClAA/wrg3xTAvymAf1MA/6YA/k0B/JsC+DcF8G8K4N8UwL8pgH9TAP+mAP5NAfybAvg3BfBvCuDfFMC/KYB/UwD/pgD+TQH8mwL4NwXwbwrg3xTAvymAf1MA/6YA/k0B/JsC+DcF8G8K4N8UwL8pgH9TAP+mAP5NAfybAvg3BfBvCuDfFMC/KYB/Sy6Af0sugH9LLoB/Sy6Af0sugH9LLoB/Sy6Af0sugH9LLoB/Sy6Af0sugH9LLoB/Sy6Af0sugH9LLoB/Sy6Af0sugH9LLoB/Sy6Af0sugH9LLoB/Sy6Af0sugH9LLoB/Sy6Af0sugH9LLoB/Sy6Af0sugH9LLoB/Sy6Af0sugH9LLoB/Sy6Af0sugH9LLoB/Sy6Af0sugH9LLoB/Sy6Af0sugH9LLoB/Sy6Af0sugH9LLoB/Sy6Af0sugH9LLoB/Sy6Af0sugH9LLoB/Sy6Af0sugH9LLoB/Sy6Af0sugH9LLoB/Sy6Af0sugH9LLoB/Sy6Af0sugH9LLoB/Sy6Af0sugH9LLoB/Sy6Af0sugH9LLoB/Sy6Af0sugH9LLoB/Sy6Af0sugH9LLoB/Sy6Af0sugH9LLoB/Sy6Af0sugH9LLoB/Sy6Af0sugH9LLoB/Sy6AfwveR99/2UlYvf8B7UBYOH1OrfoAAAAldEVYdGRhdGU6Y3JlYXRlADIwMjQtMDctMjFUMDk6MTM6MDArMDA6MDDNexHEAAAAJXRFWHRkYXRlOm1vZGlmeQAyMDI0LTA3LTIxVDA5OjEzOjAwKzAwOjAwvCapeAAAAABJRU5ErkJggg==;fontSize=15;" parent="1" vertex="1">
                    <mxGeometry x="1242" y="225.5" width="70" height="70" as="geometry"/>
                </mxCell>
                <mxCell id="36" value="Coinbase" style="shape=image;imageAspect=0;aspect=fixed;verticalLabelPosition=bottom;verticalAlign=top;image=data:image/png,iVBORw0KGgoAAAANSUhEUgAAAOEAAADhCAMAAAAJbSJIAAAAllBMVEX///8AUv8AUP8RV/8ASf8AT/8ATf8ARP8AP/8APf8AQv8ARv8AQ/8ASv8AO/++y//X3//M1v/R2v/m6/+jtf+Ppv+br//09v+YrP8wZf83af+Tqf/t8f9Zfv/c4/9Abv+4xv+xwP9tjP9Ndv9khv8fXP/H0v/i6P+ru/8pYf+6yP/y9f9QeP+CnP9bgP90kf98l/9pif/iFikqAAAGm0lEQVR4nO2d23bqIBCGFQmEYDzGc61aq9ae9/u/3NZ2ddlWrUMyQEzmu8il5DcwwDAzVCoEQRAEQRAEQRAEQRAEQRAEQRAEQRAEMt1Oc5EMe3uGyaLZ2Qx8vxEa3XX/baZVVJeacx7H8e6pZT1Scnw3bHZ9v15GOv1XHkouAlY9hgWCy1A+D9u+XzMl3WQa1rk4pe2Hzp1MtUw2vl/XlM1wq7i4IO6A4GGtd+v7peEMHkaKX/p2R9+Sh6vkOqxP607pwFDel0h13/H9+hdpjkN45zxGRNu5bwl/sqjV032+A4GsPviWcZbHmjQdfadgki18SzlJZxRh6PvUuFr7lnPE06vK2j9/aAyfb3xL+kmSyb6cQjQmvkV9oztCGYC/0KvcrAH6DcwOeiBo9HxL+2Awk1b07dGjHIzGtsYegd8RUdO3wEnDwgj8BlMvfgVO61b17dFLj/oG29i6wGo1rnkbjF1hcwgeCLSnaaOFtkq7BFNeHB0d5UrgTmLDwzq1bdmI/qLhfNbouBW4k+j4K7YcdtEviU7HYteZkTnAlEOLOhB2ltoXJGp38+LWzTz4m6DmSuCri5XMKWJHC7iJ/bXoOaSTZXi74U1gtaocTIsD7d6MHmCRfWuz9GNlvhAj2wL79lwWMLRl303X5yD8pGF34h/57aN7gpVNgYnvPrpHD+0JHISZ7Shj2U1xw549vU/fR5nguh6GoY717lnXlw/4zyOebQlsqbSvxCM97c1bX//9TWvem+rI4KD/J6GtveIo1Y6CcTVLTtm/22Rpftz/gS1j04xSvIyIasn5YfOUrKI0H1LaOUJdmf/fIlxe6lDtpTLXyKo2BM6NtxQsmkFCK1ozc4+BtHHWb/wJY/EI/Okm44a/beMjmo5Cpt4Mfv3d1HUn5+gKZ2ajRWgzi942nDoC9D3GrdlcyEemAVyDsVlPDbGjp96MfDPyPkUT/4wWvSJNE38RmrQevadq48VoqCvcML8HbSIwrb+oZyKRJ6gKxwYLNpnuC+55MeiowRZRX6VrYGd4lgHyz8DchJib/T684YyuojF80uCYHhv4roLJbAZgAN9tMEQn/w28k6qsWzcDh3OIF/4Ot6SxyVLtNO/gEYFoTV+hg4MJhNbAnhxEbwZ4dxPNEVqDr/EVQmsftKBNBmOU9sCL/DrWwXcCHRlIq2Gwx4tjeU6hTkQxQ2oQevojpkgNQl2bdSwnXxs4LJjEae8GuK9A9CxAPSYhTnLfGrgcRhsV8JEvcY6Eoc0pvOOEJ6CtQfpT32Hbe6Sp4hPghCHuUFoDWjbETgruN0j/6skU12OiFkprn9zCrCmSMQWOiQilsS+AER8ozhrgZCFw45WmgkFA2UABV6UxbrjShNUgxBgrU+B0qPOZMwhhDtv+yvxn8J4DuMGPrrc6AnBqCq8j0/wUQ6BC3++ZngkpJIW5p/jjsPi2tPjzYfHXNMVfl/rZW/Qc7i387A+XDveHfvb4QJ8wTkCGDz8NcGgg+WmgvrY+SmufAJcZSL42H/5SYOAAkr/Ug88bGt2C5KMFn1vgdVNgJ8U6twCfPeFFf1Tdnj25Pz9cAwOusc4P3Z8BQw/y0YIxXJ/jd6ChnmiHQa5jMcCBkBKtCAE8ngYanf8Xj+7jaRzHRIFzvhAX+07j2uAR5YhxbS5jE9fwthBjE03iS3XG+FJ4MjxmfKnDGGGDRGPUGGFncd73vuK88xirz1Bj9UuQb2GYM5NOotecmRLkPRU/dy13+Ye4dmaPeQ6piUnNQw6peR4wD6BelHzkAafL5YZ4iXOTy50yH//SJjVdPj6zITBtTYVV8nT2Jwf5qqmAXRdjk7u6GBlrm0wev9U2eZy88hzWNsGoT8MF3z2jnNanKUGNoZzUibJ6pUDha32VoF5b8WvulaBuYglqXxa/fqnXGrTa0VUQha8jXIJa0CWo5138muwlqKvv424E59c/FP5+C9d3lHi59qnw98yU4K6gEtz3VCn+nV2VEty7VoK780pw/2Gl+HdYVkpwD2ml+HfJVkpwH3Cl+Hc67yn6vdx7in63+p7mOJPNEdF27lvCRVp3Sqf7kIyr++vIJh48jMwP6BkPV8kVZbxvhltlcEwveFjr5Wl+B9FNpmH98nE9E1yqZYIYlO6UTn/KQ8nFyURbFuzEhfJ56MlFgUZ33X+baRXVpeacx3G8e2pZj5Qc3w2b11uJ4Yhup7lIhr09w2TR7GyuyKoQBEEQBEEQBEEQBEEQBEEQBEEQBEFcCf8BOB2GGtn6GSEAAAAASUVORK5CYII=;fontSize=15;" parent="1" vertex="1">
                    <mxGeometry x="1342" y="215.5" width="90" height="90" as="geometry"/>
                </mxCell>
            </root>
        </mxGraphModel>
    </diagram>
</mxfile>